<?xml version="1.0" encoding="utf-8"?>
<!-- Generator: Adobe Illustrator 23.0.4, SVG Export Plug-In . SVG Version: 6.00 Build 0)  -->
<svg version="1.1" id="Layer_1" xmlns="http://www.w3.org/2000/svg" xmlns:xlink="http://www.w3.org/1999/xlink" x="0px" y="0px"
	 viewBox="0 0 150 150" style="enable-background:new 0 0 150 150;" xml:space="preserve">
<style type="text/css">
	.st0{fill:#2A64DB;}
	.st1{fill:#FFFFFF;}
	.st2{fill:#FFC822;}
</style>
<g>
	<rect class="st0" width="150" height="150"/>
	<g>
		<path class="st1" d="M115,92.3c0.1,1.9-0.5,3.7-1.8,5.1c-1.2,1.4-3,2.2-4.9,2.2l-30.8,1.2l-30.8,1.3c2.2,8.2,8.2,14.9,16.2,17.9
			c10.9,4.4,23.5,1.4,31.2-7.6c1.9-2.4,5.2-3.1,8-1.9c2.1,0.8,3.7,2.7,4.2,4.9c0.6,2.2,0,4.5-1.6,6.2c-5.6,6.5-13.1,11.1-21.4,13
			c-8.5,2.1-17.5,1.5-25.6-1.9c-10.4-4-18.6-12.1-22.8-22.4c-4.5-10.2-4.6-21.7-0.3-31.9C38.6,68,46.7,59.8,57,55.6
			C75.2,48,96.3,54,107.6,70.3C112.1,76.7,114.7,84.4,115,92.3z M83.6,68.8C69.4,63,53.4,69.9,47.7,84c0,0,0,0,0,0.1
			c-0.5,1.3-0.9,2.6-1.2,3.9l53.1-2.3C97.1,77.8,91.2,71.6,83.6,68.8L83.6,68.8z"/>
		<polygon id="stroke_1_" class="st2" points="42.4,29.9 131.3,12.4 106,41.3 31.9,42.3 		"/>
	</g>
</g>
</svg>
